<svg width="32" height="32" viewBox="0 0 32 32" fill="none" xmlns="http://www.w3.org/2000/svg">
<path d="M25.0523 13.5261C25.0523 8.28307 20.8062 4 15.5262 4C10.2831 4 6 8.24615 6 13.5261C6 17.7354 8.76924 21.3169 12.5723 22.5723V27.3354C12.5723 27.7046 12.8677 28 13.2369 28H17.7416C18.1108 28 18.4062 27.7046 18.4062 27.3354V22.5723C22.2831 21.3538 25.0523 17.7723 25.0523 13.5261ZM15.5262 16.7754C13.7539 16.7754 12.3139 15.3354 12.3139 13.5631C12.3139 11.7908 13.7539 10.3508 15.5262 10.3508C17.2985 10.3508 18.7385 11.7908 18.7385 13.5631C18.7385 15.3354 17.2985 16.7754 15.5262 16.7754Z" fill="#2684FF"/>
<path d="M15.5261 4.03699V10.3508C17.2984 10.3508 18.7384 11.7908 18.7384 13.5631C18.7384 15.3355 17.2984 16.7755 15.5261 16.7755C17.1507 16.7755 18.48 18.1047 18.48 19.7293V22.6093C22.2831 21.3539 25.0523 17.7724 25.0523 13.5631C25.0523 8.28314 20.7692 4.03699 15.5261 4.03699Z" fill="url(#paint0_linear)"/>
<defs>
<linearGradient id="paint0_linear" x1="20.2814" y1="20.8717" x2="20.2814" y2="10.7661" gradientUnits="userSpaceOnUse">
<stop offset="0.176" stop-color="#0052CC"/>
<stop offset="1" stop-color="#2684FF"/>
</linearGradient>
</defs>
</svg>
